<svg width="607" height="569" viewBox="0 0 607 569" fill="none" xmlns="http://www.w3.org/2000/svg">
<g filter="url(#filter0_d_109_116)">
<path d="M241 435.64H241.162C243.468 468.058 270.496 493.64 303.5 493.64C336.505 493.64 363.533 468.058 365.839 435.64H366V326.64H429V436.64H428.995C428.457 505.216 372.702 560.64 304 560.64C235.299 560.64 179.544 505.216 179.006 436.64H179V326.64H241V435.64Z" fill="url(#paint0_linear_109_116)"/>
</g>
<g filter="url(#filter1_i_109_116)">
<path d="M434.878 239.895L336.001 338.772V452.641H272.001V338.895L173.001 239.895L218.256 194.641L303.94 280.324L389.624 194.641L434.878 239.895Z" fill="#364D7A"/>
</g>
<g filter="url(#filter2_d_109_116)">
<path d="M282.428 188.641L302.934 168.135L282.428 147.628L303.641 126.415L324.854 147.628L304.348 168.135L324.854 188.641L346.067 167.427L367.281 188.641L303.641 252.28L240.001 188.641L261.215 167.427L282.428 188.641Z" fill="#CCF6FF"/>
</g>
<g filter="url(#filter3_d_109_116)">
<path d="M304.063 38.3457C307.521 38.1576 347.566 36.1758 363.825 44.3584C370.956 47.9469 379.965 55.261 383.404 58.1478C384.329 58.925 385.491 59.3584 386.7 59.3584H487.15C487.734 59.3584 488.31 59.4651 488.866 59.6419C492.533 60.8083 497.953 61.5469 504 61.5469C510.047 61.5469 515.467 60.8083 519.134 59.6419C519.69 59.4651 520.266 59.3584 520.85 59.3584H553.37C558.002 59.3584 560.144 65.1126 556.639 68.1414L534.732 87.0744C534.136 87.5898 533.426 87.9569 532.661 88.1457L420.703 115.784C417.496 116.576 415.902 120.188 417.483 123.09C428.464 143.253 464.324 211.105 464.324 237.358C464.324 266.113 424.747 280.241 419.014 282.137C418.544 282.292 418.034 282.416 417.625 282.138C416.298 281.235 415.891 277.668 418.325 273.358C419.911 270.552 436.707 249.575 435.324 237.358C432.657 213.796 395.205 142.799 386.934 127.347C385.953 125.515 383.963 124.544 381.904 124.825L378.65 125.269C376.172 125.607 374.325 127.723 374.325 130.223V177.858C374.324 177.884 374.191 180.718 372.372 183.977C371.687 185.206 370 184.407 370 183C370 171.954 361.046 163 350 163C346.545 163 341.343 158.344 341.653 154.903C341.754 153.782 341.806 152.648 341.806 151.501C341.806 130.79 325.016 114.001 304.306 114.001C283.595 114.001 266.806 130.79 266.806 151.501C266.806 152.513 266.846 153.515 266.924 154.507C267.191 157.868 261.372 163 258 163C246.954 163 238 171.954 238 183C238 184.348 236.374 185.1 235.721 183.92C233.935 180.686 233.803 177.885 233.802 177.858V130.223C233.802 127.723 231.955 125.607 229.477 125.269L226.222 124.825C224.164 124.544 222.174 125.515 221.193 127.347C212.923 142.798 175.469 213.796 172.802 237.358C171.419 249.576 188.217 270.553 189.802 273.358C192.236 277.669 191.829 281.236 190.501 282.138C190.093 282.416 189.586 282.293 189.118 282.139C183.402 280.249 143.802 266.121 143.802 237.358C143.802 211.106 179.659 143.259 190.643 123.093C192.223 120.191 190.631 116.576 187.423 115.784L75.4657 88.1457C74.7006 87.9569 73.9909 87.5898 73.3947 87.0744L51.4877 68.1414C47.9832 65.1126 50.1252 59.3584 54.7572 59.3584H88.1505C88.7338 59.3584 89.31 59.4651 89.8659 59.6419C93.5332 60.8083 98.9531 61.5469 105 61.5469C111.047 61.5469 116.467 60.8083 120.134 59.6419C120.69 59.4651 121.266 59.3584 121.85 59.3584H221.427C222.636 59.3584 223.797 58.9254 224.723 58.1484C228.161 55.2619 237.171 47.947 244.302 44.3584C260.563 36.1753 300.611 38.1579 304.063 38.3457ZM119.802 0.000976562C183.289 0.00889952 199.357 16.7426 203.424 25.2124C204.622 27.7079 202.552 30.0029 199.784 30.0029H124.802C122.04 30.0029 119.802 32.2415 119.802 35.0029V51.4393C119.802 53.816 118.135 55.8906 115.802 56.3479C112.687 56.9588 108.979 57.5469 105 57.5469C100.859 57.5469 97.0116 56.9094 93.82 56.2722C91.4806 55.8053 89.8018 53.7242 89.8018 51.3387V35.0029C89.8018 32.2415 87.5073 30.0068 84.7462 29.9666C25.4056 29.1016 10.1119 13.0117 6.17032 4.7755C4.97829 2.28468 7.03095 0.00285793 9.79231 0.00277308C23.2042 0.00236096 60.9606 0.00125872 89.8018 0.000976562H119.802ZM518.802 0.00146485C518.802 0.00173452 518.802 0.00195313 518.802 0.00195313C547.646 0.00223533 585.405 0.0033377 598.814 0.00374973C601.576 0.00383458 603.625 2.2856 602.433 4.77638C598.492 13.0125 583.198 29.1025 523.857 29.9676C521.096 30.0078 518.802 32.2425 518.802 35.0039V51.4393C518.802 53.816 517.135 55.8906 514.802 56.3479C511.687 56.9588 507.979 57.5469 504 57.5469C499.859 57.5469 496.012 56.9094 492.82 56.2722C490.481 55.8053 488.802 53.7242 488.802 51.3387V35.0039C488.802 32.2425 486.563 30.0039 483.802 30.0039H408.82C406.051 30.0039 403.982 27.7086 405.18 25.2129C409.247 16.743 425.316 0.00991179 488.801 0.00195319C488.802 0.00195315 488.802 0.00173454 488.802 0.00146487C488.802 0.00119519 488.802 0.000976562 488.802 0.000976562H518.801C518.802 0.000976562 518.802 0.00119517 518.802 0.00146485Z" fill="#333333"/>
<path d="M4 0.00338391C4 0.00338391 94.5 -0.00212252 119 0.000914891C204 0.0114528 204 30.0034 204 30.0034C204 30.0034 93.5 30.0034 89 30.0034C4 30.0034 4 0.00338391 4 0.00338391Z" fill="#333333"/>
<path d="M603 0.00436047C603 0.00436047 512.5 -0.00114596 488 0.00189145C403 0.0124294 403 30.0044 403 30.0044C403 30.0044 513.5 30.0044 518 30.0044C603 30.0044 603 0.00436047 603 0.00436047Z" fill="#333333"/>
</g>
<defs>
<filter id="filter0_d_109_116" x="175" y="326.64" width="258" height="242" filterUnits="userSpaceOnUse" color-interpolation-filters="sRGB">
<feFlood flood-opacity="0" result="BackgroundImageFix"/>
<feColorMatrix in="SourceAlpha" type="matrix" values="0 0 0 0 0 0 0 0 0 0 0 0 0 0 0 0 0 0 127 0" result="hardAlpha"/>
<feOffset dy="4"/>
<feGaussianBlur stdDeviation="2"/>
<feComposite in2="hardAlpha" operator="out"/>
<feColorMatrix type="matrix" values="0 0 0 0 0 0 0 0 0 0 0 0 0 0 0 0 0 0 0.25 0"/>
<feBlend mode="normal" in2="BackgroundImageFix" result="effect1_dropShadow_109_116"/>
<feBlend mode="normal" in="SourceGraphic" in2="effect1_dropShadow_109_116" result="shape"/>
</filter>
<filter id="filter1_i_109_116" x="173.001" y="194.641" width="261.877" height="262" filterUnits="userSpaceOnUse" color-interpolation-filters="sRGB">
<feFlood flood-opacity="0" result="BackgroundImageFix"/>
<feBlend mode="normal" in="SourceGraphic" in2="BackgroundImageFix" result="shape"/>
<feColorMatrix in="SourceAlpha" type="matrix" values="0 0 0 0 0 0 0 0 0 0 0 0 0 0 0 0 0 0 127 0" result="hardAlpha"/>
<feOffset dy="4"/>
<feGaussianBlur stdDeviation="2"/>
<feComposite in2="hardAlpha" operator="arithmetic" k2="-1" k3="1"/>
<feColorMatrix type="matrix" values="0 0 0 0 0 0 0 0 0 0 0 0 0 0 0 0 0 0 0.25 0"/>
<feBlend mode="normal" in2="shape" result="effect1_innerShadow_109_116"/>
</filter>
<filter id="filter2_d_109_116" x="236.001" y="126.415" width="135.279" height="133.865" filterUnits="userSpaceOnUse" color-interpolation-filters="sRGB">
<feFlood flood-opacity="0" result="BackgroundImageFix"/>
<feColorMatrix in="SourceAlpha" type="matrix" values="0 0 0 0 0 0 0 0 0 0 0 0 0 0 0 0 0 0 127 0" result="hardAlpha"/>
<feOffset dy="4"/>
<feGaussianBlur stdDeviation="2"/>
<feComposite in2="hardAlpha" operator="out"/>
<feColorMatrix type="matrix" values="0 0 0 0 0 0 0 0 0 0 0 0 0 0 0 0 0 0 0.25 0"/>
<feBlend mode="normal" in2="BackgroundImageFix" result="effect1_dropShadow_109_116"/>
<feBlend mode="normal" in="SourceGraphic" in2="effect1_dropShadow_109_116" result="shape"/>
</filter>
<filter id="filter3_d_109_116" x="0" y="0" width="607" height="290.304" filterUnits="userSpaceOnUse" color-interpolation-filters="sRGB">
<feFlood flood-opacity="0" result="BackgroundImageFix"/>
<feColorMatrix in="SourceAlpha" type="matrix" values="0 0 0 0 0 0 0 0 0 0 0 0 0 0 0 0 0 0 127 0" result="hardAlpha"/>
<feOffset dy="4"/>
<feGaussianBlur stdDeviation="2"/>
<feComposite in2="hardAlpha" operator="out"/>
<feColorMatrix type="matrix" values="0 0 0 0 0 0 0 0 0 0 0 0 0 0 0 0 0 0 0.25 0"/>
<feBlend mode="normal" in2="BackgroundImageFix" result="effect1_dropShadow_109_116"/>
<feBlend mode="normal" in="SourceGraphic" in2="effect1_dropShadow_109_116" result="shape"/>
</filter>
<linearGradient id="paint0_linear_109_116" x1="304" y1="326.64" x2="304" y2="560.64" gradientUnits="userSpaceOnUse">
<stop stop-color="#364D7A"/>
<stop offset="1" stop-color="#2F8E89"/>
</linearGradient>
</defs>
</svg>
